<svg width="69" height="140" viewBox="0 0 69 140" fill="none" xmlns="http://www.w3.org/2000/svg">
<path fill-rule="evenodd" clip-rule="evenodd" d="M29.6103 0.705236C27.1378 1.65296 24.3192 4.36577 23.1477 6.92476C22.3527 8.66084 22.209 9.39315 22.2038 11.7423C22.1979 14.1702 22.3217 14.7741 23.2052 16.6308C24.9953 20.3924 27.9292 22.6717 32.0128 23.4734C37.0795 24.4681 42.5625 21.6288 44.7652 16.87C45.5928 15.0828 45.7058 14.4658 45.7058 11.7423C45.7058 9.05356 45.5889 8.39719 44.8168 6.75301C43.6446 4.25627 40.9837 1.69826 38.5655 0.74304C36.0954 -0.232712 32.1 -0.249658 29.6103 0.705236ZM15.2974 27.8477C12.4147 28.7482 9.43966 31.4567 8.12539 34.3775C7.01591 36.8429 -0.283771 73.2694 0.00854219 74.8803C0.302489 76.4997 0.86328 77.5501 1.99301 78.5966C4.91909 81.3071 9.17707 81.1106 11.787 78.1442C12.9824 76.7856 13.0826 76.388 16.3569 60.0175L18.5974 48.8153L18.7607 91.793C18.942 139.456 18.7643 135.93 21.0897 138.059C22.6421 139.481 23.9828 139.924 26.2423 139.761C28.6517 139.587 30.529 138.432 31.5735 136.481L32.3149 135.096L32.4782 109.257C32.6203 86.7624 32.7049 83.3766 33.1314 83.1077C33.8829 82.6342 34.609 82.7294 35.1979 83.3786C35.6819 83.9121 35.7407 86.3919 35.82 109.532C35.9059 134.659 35.919 135.119 36.5837 136.4C36.974 137.153 37.9211 138.151 38.8252 138.763C40.1554 139.663 40.6813 139.822 42.3264 139.822C45.3449 139.822 47.5423 138.432 48.6296 135.836C49.0767 134.768 49.1381 129.638 49.161 91.3544C49.175 67.5537 49.2472 48.227 49.3213 48.4063C49.3955 48.5855 50.7124 54.9648 52.2481 62.5821C55.2568 77.5045 55.342 77.7669 57.7256 79.4283C59.1888 80.4481 61.8271 80.7883 63.6408 80.1912C66.2298 79.3387 68.0572 76.8064 68.0712 74.0522C68.0794 72.4794 61.2154 37.9227 60.3855 35.3578C59.3106 32.0356 56.6605 29.3508 53.1711 28.0478C51.4662 27.4113 50.7189 27.3866 34.0172 27.4074C20.8301 27.424 16.3144 27.5303 15.2974 27.8477Z" fill="#30A9E2"/>
</svg>
