<svg width="79" height="140" viewBox="0 0 79 140" fill="none" xmlns="http://www.w3.org/2000/svg">
<path fill-rule="evenodd" clip-rule="evenodd" d="M35.64 0.382383C32.5395 1.38181 29.5181 4.00627 28.1712 6.87015C27.4119 8.48443 27.2937 9.15441 27.2937 11.8415C27.2937 14.6881 27.3828 15.1275 28.3608 17.1067C29.6435 19.7035 31.3775 21.3429 34.2905 22.7122C36.1804 23.6007 36.801 23.7292 39.1324 23.7168C41.5433 23.7038 42.0483 23.5831 44.2697 22.4891C45.8375 21.7167 47.1598 20.7786 47.9074 19.9083C53.196 13.7513 51.4312 4.69908 44.2576 1.18871C42.6417 0.39804 41.8991 0.244734 39.404 0.187C37.7839 0.149163 36.0901 0.237232 35.64 0.382383ZM21.6209 28.0417C20.0894 28.7938 18.7612 30.5145 17.5135 33.3627C16.0672 36.665 6.84798 57.1424 4.88447 61.4144C0.13135 71.754 -0.120348 72.4318 0.029558 74.494C0.286492 78.0347 3.09248 80.6591 6.62181 80.6591C8.43213 80.6591 10.5721 79.7921 11.6613 78.6176C12.0344 78.2157 15.0326 71.9086 18.3239 64.6022C21.6156 57.296 24.3568 51.366 24.4157 51.4244C24.4743 51.4831 23.6999 54.3052 22.6948 57.6959C21.6893 61.0866 20.5218 65.035 20.1002 66.4702C13.9966 87.2487 11.7467 94.9701 11.7467 95.1367C11.7467 95.247 14.4673 95.3373 17.7924 95.3373H23.8377L23.9294 115.479L24.0207 135.621L24.7882 136.851C26.1115 138.972 27.5598 139.827 30.068 139.969C31.7945 140.066 32.5323 139.953 33.541 139.436C35.1586 138.607 36.4265 137.243 36.9047 135.817C37.1659 135.038 37.2765 128.85 37.2765 115.023V95.3373H39.0767H40.8769V115.294C40.8769 134.601 40.8982 135.295 41.5322 136.578C41.8928 137.307 42.8129 138.344 43.5772 138.88C44.7466 139.702 45.3302 139.872 47.2587 139.953C50.0365 140.07 51.5974 139.323 53.1371 137.14L54.1327 135.728L54.2241 115.533L54.3157 95.3373H59.5428C62.4178 95.3373 64.7702 95.2878 64.7702 95.2274C64.7702 95.1671 63.1615 89.1122 61.195 81.7724C56.4416 64.03 56.5974 64.6123 54.3173 56.0634C53.2215 51.9544 52.3633 48.5563 52.4105 48.5122C52.4952 48.433 54.266 52.3083 60.9888 67.2857C65.755 77.9042 66.0044 78.3609 67.6622 79.5113C68.9266 80.3887 69.3433 80.496 71.4799 80.496C73.6149 80.496 74.0342 80.3881 75.2976 79.5133C77.0909 78.2712 78.1897 76.1895 78.1897 74.0331C78.1897 72.305 78.4148 72.8327 65.3596 43.9636C61.9524 36.4288 58.8423 29.9195 58.4489 29.4984C58.0552 29.0773 57.1865 28.4533 56.5188 28.1121C55.3726 27.5263 54.391 27.4917 39.008 27.4989C24.5683 27.5054 22.5871 27.5674 21.6209 28.0417Z" fill="#30A9E2"/>
</svg>
